<svg width="261" height="158" viewBox="0 0 261 158" fill="none" xmlns="http://www.w3.org/2000/svg">
<path d="M3 23L28.5 3L54 23L79.5 3L105 23L130.5 3L156 23L181.5 3L207 23L232.5 3L258 23" stroke="#808996" stroke-opacity="0.25" stroke-width="6" stroke-linecap="round" stroke-linejoin="round"/>
<path d="M3 67L28.5 47L54 67L79.5 47L105 67L130.5 47L156 67L181.5 47L207 67L232.5 47L258 67" stroke="#808996" stroke-opacity="0.25" stroke-width="6" stroke-linecap="round" stroke-linejoin="round"/>
<path d="M3 111L28.5 91L54 111L79.5 91L105 111L130.5 91L156 111L181.5 91L207 111L232.5 91L258 111" stroke="#808996" stroke-opacity="0.25" stroke-width="6" stroke-linecap="round" stroke-linejoin="round"/>
<path d="M3 155L28.5 135L54 155L79.5 135L105 155L130.5 135L156 155L181.5 135L207 155L232.5 135L258 155" stroke="#808996" stroke-opacity="0.25" stroke-width="6" stroke-linecap="round" stroke-linejoin="round"/>
</svg>
