<svg width="230" height="230" viewBox="0 0 230 230" fill="none" xmlns="http://www.w3.org/2000/svg">
<circle cx="2.5" cy="2.5" r="2.5" fill="#2B3846" fill-opacity="0.42"/>
<circle cx="27.5" cy="2.5" r="2.5" fill="#2B3846" fill-opacity="0.42"/>
<circle cx="52.5" cy="2.5" r="2.5" fill="#2B3846" fill-opacity="0.42"/>
<circle cx="77.5" cy="2.5" r="2.5" fill="#2B3846" fill-opacity="0.42"/>
<circle cx="102.5" cy="2.5" r="2.5" fill="#2B3846" fill-opacity="0.42"/>
<circle cx="127.5" cy="2.5" r="2.5" fill="#2B3846" fill-opacity="0.42"/>
<circle cx="152.5" cy="2.5" r="2.5" fill="#2B3846" fill-opacity="0.42"/>
<circle cx="177.5" cy="2.5" r="2.5" fill="#2B3846" fill-opacity="0.42"/>
<circle cx="202.5" cy="2.5" r="2.5" fill="#2B3846" fill-opacity="0.42"/>
<circle cx="227.5" cy="2.5" r="2.5" fill="#2B3846" fill-opacity="0.42"/>
<circle cx="2.5" cy="27.5" r="2.5" fill="#2B3846" fill-opacity="0.42"/>
<circle cx="27.5" cy="27.5" r="2.5" fill="#2B3846" fill-opacity="0.42"/>
<circle cx="52.5" cy="27.5" r="2.5" fill="#2B3846" fill-opacity="0.42"/>
<circle cx="77.5" cy="27.5" r="2.5" fill="#2B3846" fill-opacity="0.42"/>
<circle cx="102.5" cy="27.5" r="2.5" fill="#2B3846" fill-opacity="0.42"/>
<circle cx="127.5" cy="27.5" r="2.5" fill="#2B3846" fill-opacity="0.42"/>
<circle cx="152.5" cy="27.5" r="2.5" fill="#2B3846" fill-opacity="0.42"/>
<circle cx="177.5" cy="27.5" r="2.5" fill="#2B3846" fill-opacity="0.42"/>
<circle cx="202.5" cy="27.5" r="2.5" fill="#2B3846" fill-opacity="0.42"/>
<circle cx="227.5" cy="27.5" r="2.5" fill="#2B3846" fill-opacity="0.42"/>
<circle cx="2.5" cy="52.5" r="2.5" fill="#2B3846" fill-opacity="0.42"/>
<circle cx="27.5" cy="52.5" r="2.5" fill="#2B3846" fill-opacity="0.42"/>
<circle cx="52.5" cy="52.5" r="2.5" fill="#2B3846" fill-opacity="0.42"/>
<circle cx="77.5" cy="52.5" r="2.5" fill="#2B3846" fill-opacity="0.42"/>
<circle cx="102.5" cy="52.5" r="2.5" fill="#2B3846" fill-opacity="0.42"/>
<circle cx="127.5" cy="52.5" r="2.5" fill="#2B3846" fill-opacity="0.42"/>
<circle cx="152.5" cy="52.5" r="2.5" fill="#2B3846" fill-opacity="0.42"/>
<circle cx="177.5" cy="52.5" r="2.5" fill="#2B3846" fill-opacity="0.42"/>
<circle cx="202.5" cy="52.5" r="2.5" fill="#2B3846" fill-opacity="0.42"/>
<circle cx="227.5" cy="52.5" r="2.5" fill="#2B3846" fill-opacity="0.42"/>
<circle cx="2.5" cy="77.5" r="2.5" fill="#2B3846" fill-opacity="0.42"/>
<circle cx="27.5" cy="77.5" r="2.5" fill="#2B3846" fill-opacity="0.42"/>
<circle cx="52.5" cy="77.5" r="2.5" fill="#2B3846" fill-opacity="0.42"/>
<circle cx="77.5" cy="77.5" r="2.5" fill="#2B3846" fill-opacity="0.42"/>
<circle cx="102.5" cy="77.5" r="2.5" fill="#2B3846" fill-opacity="0.42"/>
<circle cx="127.5" cy="77.5" r="2.5" fill="#2B3846" fill-opacity="0.42"/>
<circle cx="152.5" cy="77.5" r="2.5" fill="#2B3846" fill-opacity="0.42"/>
<circle cx="177.5" cy="77.5" r="2.5" fill="#2B3846" fill-opacity="0.42"/>
<circle cx="202.5" cy="77.5" r="2.5" fill="#2B3846" fill-opacity="0.42"/>
<circle cx="227.5" cy="77.5" r="2.5" fill="#2B3846" fill-opacity="0.42"/>
<circle cx="2.5" cy="102.5" r="2.5" fill="#2B3846" fill-opacity="0.42"/>
<circle cx="27.5" cy="102.5" r="2.5" fill="#2B3846" fill-opacity="0.42"/>
<circle cx="52.5" cy="102.5" r="2.5" fill="#2B3846" fill-opacity="0.42"/>
<circle cx="77.5" cy="102.5" r="2.5" fill="#2B3846" fill-opacity="0.42"/>
<circle cx="102.5" cy="102.5" r="2.5" fill="#2B3846" fill-opacity="0.42"/>
<circle cx="127.5" cy="102.5" r="2.5" fill="#2B3846" fill-opacity="0.42"/>
<circle cx="152.5" cy="102.5" r="2.5" fill="#2B3846" fill-opacity="0.42"/>
<circle cx="177.5" cy="102.5" r="2.5" fill="#2B3846" fill-opacity="0.42"/>
<circle cx="202.5" cy="102.5" r="2.5" fill="#2B3846" fill-opacity="0.42"/>
<circle cx="227.5" cy="102.5" r="2.5" fill="#2B3846" fill-opacity="0.42"/>
<circle cx="2.5" cy="127.5" r="2.5" fill="#2B3846" fill-opacity="0.42"/>
<circle cx="27.5" cy="127.5" r="2.5" fill="#2B3846" fill-opacity="0.42"/>
<circle cx="52.5" cy="127.5" r="2.5" fill="#2B3846" fill-opacity="0.42"/>
<circle cx="77.5" cy="127.5" r="2.5" fill="#2B3846" fill-opacity="0.42"/>
<circle cx="102.5" cy="127.5" r="2.5" fill="#2B3846" fill-opacity="0.42"/>
<circle cx="127.5" cy="127.5" r="2.5" fill="#2B3846" fill-opacity="0.42"/>
<circle cx="152.5" cy="127.5" r="2.5" fill="#2B3846" fill-opacity="0.42"/>
<circle cx="177.5" cy="127.5" r="2.5" fill="#2B3846" fill-opacity="0.42"/>
<circle cx="202.5" cy="127.5" r="2.5" fill="#2B3846" fill-opacity="0.42"/>
<circle cx="227.5" cy="127.5" r="2.5" fill="#2B3846" fill-opacity="0.42"/>
<circle cx="2.5" cy="152.5" r="2.5" fill="#2B3846" fill-opacity="0.42"/>
<circle cx="27.5" cy="152.5" r="2.5" fill="#2B3846" fill-opacity="0.42"/>
<circle cx="52.5" cy="152.5" r="2.5" fill="#2B3846" fill-opacity="0.42"/>
<circle cx="77.5" cy="152.5" r="2.5" fill="#2B3846" fill-opacity="0.42"/>
<circle cx="102.5" cy="152.5" r="2.5" fill="#2B3846" fill-opacity="0.42"/>
<circle cx="127.5" cy="152.5" r="2.5" fill="#2B3846" fill-opacity="0.42"/>
<circle cx="152.5" cy="152.5" r="2.5" fill="#2B3846" fill-opacity="0.42"/>
<circle cx="177.5" cy="152.5" r="2.5" fill="#2B3846" fill-opacity="0.42"/>
<circle cx="202.5" cy="152.5" r="2.5" fill="#2B3846" fill-opacity="0.42"/>
<circle cx="227.5" cy="152.5" r="2.5" fill="#2B3846" fill-opacity="0.42"/>
<circle cx="2.5" cy="177.5" r="2.5" fill="#2B3846" fill-opacity="0.42"/>
<circle cx="27.5" cy="177.5" r="2.5" fill="#2B3846" fill-opacity="0.42"/>
<circle cx="52.5" cy="177.5" r="2.5" fill="#2B3846" fill-opacity="0.42"/>
<circle cx="77.5" cy="177.5" r="2.5" fill="#2B3846" fill-opacity="0.42"/>
<circle cx="102.5" cy="177.5" r="2.5" fill="#2B3846" fill-opacity="0.42"/>
<circle cx="127.5" cy="177.5" r="2.5" fill="#2B3846" fill-opacity="0.42"/>
<circle cx="152.5" cy="177.5" r="2.5" fill="#2B3846" fill-opacity="0.42"/>
<circle cx="177.5" cy="177.5" r="2.5" fill="#2B3846" fill-opacity="0.42"/>
<circle cx="202.5" cy="177.5" r="2.5" fill="#2B3846" fill-opacity="0.42"/>
<circle cx="227.5" cy="177.5" r="2.5" fill="#2B3846" fill-opacity="0.42"/>
<circle cx="2.5" cy="202.5" r="2.5" fill="#2B3846" fill-opacity="0.42"/>
<circle cx="27.5" cy="202.5" r="2.5" fill="#2B3846" fill-opacity="0.42"/>
<circle cx="52.5" cy="202.5" r="2.5" fill="#2B3846" fill-opacity="0.42"/>
<circle cx="77.5" cy="202.5" r="2.5" fill="#2B3846" fill-opacity="0.42"/>
<circle cx="102.5" cy="202.5" r="2.5" fill="#2B3846" fill-opacity="0.42"/>
<circle cx="127.5" cy="202.5" r="2.5" fill="#2B3846" fill-opacity="0.42"/>
<circle cx="152.5" cy="202.5" r="2.5" fill="#2B3846" fill-opacity="0.42"/>
<circle cx="177.5" cy="202.5" r="2.5" fill="#2B3846" fill-opacity="0.42"/>
<circle cx="202.5" cy="202.5" r="2.5" fill="#2B3846" fill-opacity="0.42"/>
<circle cx="227.5" cy="202.5" r="2.5" fill="#2B3846" fill-opacity="0.42"/>
<circle cx="2.5" cy="227.5" r="2.5" fill="#2B3846" fill-opacity="0.42"/>
<circle cx="27.5" cy="227.5" r="2.5" fill="#2B3846" fill-opacity="0.42"/>
<circle cx="52.5" cy="227.5" r="2.5" fill="#2B3846" fill-opacity="0.42"/>
<circle cx="77.5" cy="227.5" r="2.5" fill="#2B3846" fill-opacity="0.42"/>
<circle cx="102.5" cy="227.5" r="2.5" fill="#2B3846" fill-opacity="0.42"/>
<circle cx="127.5" cy="227.5" r="2.5" fill="#2B3846" fill-opacity="0.42"/>
<circle cx="152.5" cy="227.5" r="2.5" fill="#2B3846" fill-opacity="0.42"/>
<circle cx="177.5" cy="227.5" r="2.5" fill="#2B3846" fill-opacity="0.42"/>
<circle cx="202.5" cy="227.5" r="2.5" fill="#2B3846" fill-opacity="0.42"/>
<circle cx="227.5" cy="227.5" r="2.5" fill="#2B3846" fill-opacity="0.42"/>
</svg>
